ISO-10303-21;
HEADER;
/* Generated by software containing ST-Developer
 * from STEP Tools, Inc. (www.steptools.com) 
 */
/* OPTION: using custom renumber hook */

FILE_DESCRIPTION(
/* description */ ('STEP AP242 Edition 2',
'CAx-IF Rec.Pracs.---Representation and Presentation of Product Manufa
cturing Information (PMI)---4.0---2014-10-13',
'CAx-IF Rec.Pracs.---3D Tessellated Geometry---0.4---2014-09-14','2;1',
'CAx-IF Rec.Pracs.---User Defined Attributes---1.5---2016-08-15'),
/* implementation_level */ '2;1');

FILE_NAME(
/* name */ '6961c29caf3c03d80c766251',
/* time_stamp */ '2026-01-10T03:08:13Z',
/* author */ (''),
/* organization */ (''),
/* preprocessor_version */ 'ST-DEVELOPER v20',
/* originating_system */ 'ONSHAPE BY PTC INC, 1.209',
/* authorisation */ '  ');

FILE_SCHEMA (('AP242_MANAGED_MODEL_BASED_3D_ENGINEERING_MIM_LF { 1 0 10303 442 3 1 4 }'));
ENDSEC;

DATA;
#10=SHAPE_REPRESENTATION_RELATIONSHIP('','',#866,#11);
#11=ADVANCED_BREP_SHAPE_REPRESENTATION('',(#864),#1442);
#12=ELLIPSE('',#871,0.0242956328951888,0.0125);
#13=ELLIPSE('',#872,0.0242956328951888,0.0125);
#14=ELLIPSE('',#874,0.0242956328951888,0.0125);
#15=ELLIPSE('',#876,0.0242956328951888,0.0125);
#16=ELLIPSE('',#877,0.0242956328951888,0.0125);
#17=ELLIPSE('',#883,0.019436506316151,0.01);
#18=ELLIPSE('',#884,0.019436506316151,0.01);
#19=ELLIPSE('',#885,0.019436506316151,0.01);
#20=ELLIPSE('',#887,0.019436506316151,0.01);
#21=ELLIPSE('',#899,0.019436506316151,0.01);
#22=ELLIPSE('',#900,0.019436506316151,0.01);
#23=ELLIPSE('',#901,0.019436506316151,0.01);
#24=ELLIPSE('',#903,0.019436506316151,0.01);
#25=ELLIPSE('',#906,0.0242956328951888,0.0125);
#26=ELLIPSE('',#909,0.0242956328951888,0.0125);
#27=ELLIPSE('',#910,0.0242956328951888,0.0125);
#28=ELLIPSE('',#912,0.0242956328951888,0.0125);
#29=ELLIPSE('',#913,0.0242956328951888,0.0125);
#30=CYLINDRICAL_SURFACE('',#870,0.0125);
#31=CYLINDRICAL_SURFACE('',#882,0.01);
#32=CYLINDRICAL_SURFACE('',#898,0.01);
#33=CYLINDRICAL_SURFACE('',#905,0.0125);
#34=CIRCLE('',#869,0.0125);
#35=CIRCLE('',#873,0.0125);
#36=CIRCLE('',#875,0.0125);
#37=CIRCLE('',#878,0.0125);
#38=CIRCLE('',#881,0.01);
#39=CIRCLE('',#886,0.01);
#40=CIRCLE('',#888,0.01);
#41=CIRCLE('',#896,0.01);
#42=CIRCLE('',#897,0.0125);
#43=CIRCLE('',#902,0.01);
#44=CIRCLE('',#904,0.01);
#45=CIRCLE('',#907,0.0125);
#46=CIRCLE('',#908,0.0125);
#47=CIRCLE('',#911,0.0125);
#48=ORIENTED_EDGE('',*,*,#294,.F.);
#49=ORIENTED_EDGE('',*,*,#295,.T.);
#50=ORIENTED_EDGE('',*,*,#296,.F.);
#51=ORIENTED_EDGE('',*,*,#297,.F.);
#52=ORIENTED_EDGE('',*,*,#298,.F.);
#53=ORIENTED_EDGE('',*,*,#299,.F.);
#54=ORIENTED_EDGE('',*,*,#300,.T.);
#55=ORIENTED_EDGE('',*,*,#298,.T.);
#56=ORIENTED_EDGE('',*,*,#301,.T.);
#57=ORIENTED_EDGE('',*,*,#302,.F.);
#58=ORIENTED_EDGE('',*,*,#303,.T.);
#59=ORIENTED_EDGE('',*,*,#304,.T.);
#60=ORIENTED_EDGE('',*,*,#305,.T.);
#61=ORIENTED_EDGE('',*,*,#306,.F.);
#62=ORIENTED_EDGE('',*,*,#307,.T.);
#63=ORIENTED_EDGE('',*,*,#308,.T.);
#64=ORIENTED_EDGE('',*,*,#309,.F.);
#65=ORIENTED_EDGE('',*,*,#310,.F.);
#66=ORIENTED_EDGE('',*,*,#311,.T.);
#67=ORIENTED_EDGE('',*,*,#312,.T.);
#68=ORIENTED_EDGE('',*,*,#313,.F.);
#69=ORIENTED_EDGE('',*,*,#314,.F.);
#70=ORIENTED_EDGE('',*,*,#295,.F.);
#71=ORIENTED_EDGE('',*,*,#315,.T.);
#72=ORIENTED_EDGE('',*,*,#316,.T.);
#73=ORIENTED_EDGE('',*,*,#308,.F.);
#74=ORIENTED_EDGE('',*,*,#317,.F.);
#75=ORIENTED_EDGE('',*,*,#318,.F.);
#76=ORIENTED_EDGE('',*,*,#315,.F.);
#77=ORIENTED_EDGE('',*,*,#319,.T.);
#78=ORIENTED_EDGE('',*,*,#320,.F.);
#79=ORIENTED_EDGE('',*,*,#321,.F.);
#80=ORIENTED_EDGE('',*,*,#322,.T.);
#81=ORIENTED_EDGE('',*,*,#323,.T.);
#82=ORIENTED_EDGE('',*,*,#324,.T.);
#83=ORIENTED_EDGE('',*,*,#310,.T.);
#84=ORIENTED_EDGE('',*,*,#321,.T.);
#85=ORIENTED_EDGE('',*,*,#325,.T.);
#86=ORIENTED_EDGE('',*,*,#305,.F.);
#87=ORIENTED_EDGE('',*,*,#326,.F.);
#88=ORIENTED_EDGE('',*,*,#327,.F.);
#89=ORIENTED_EDGE('',*,*,#303,.F.);
#90=ORIENTED_EDGE('',*,*,#328,.F.);
#91=ORIENTED_EDGE('',*,*,#329,.T.);
#92=ORIENTED_EDGE('',*,*,#330,.T.);
#93=ORIENTED_EDGE('',*,*,#331,.T.);
#94=ORIENTED_EDGE('',*,*,#332,.F.);
#95=ORIENTED_EDGE('',*,*,#333,.T.);
#96=ORIENTED_EDGE('',*,*,#334,.T.);
#97=ORIENTED_EDGE('',*,*,#335,.F.);
#98=ORIENTED_EDGE('',*,*,#336,.T.);
#99=ORIENTED_EDGE('',*,*,#337,.T.);
#100=ORIENTED_EDGE('',*,*,#338,.F.);
#101=ORIENTED_EDGE('',*,*,#339,.T.);
#102=ORIENTED_EDGE('',*,*,#340,.T.);
#103=ORIENTED_EDGE('',*,*,#341,.F.);
#104=ORIENTED_EDGE('',*,*,#342,.F.);
#105=ORIENTED_EDGE('',*,*,#343,.T.);
#106=ORIENTED_EDGE('',*,*,#344,.F.);
#107=ORIENTED_EDGE('',*,*,#345,.F.);
#108=ORIENTED_EDGE('',*,*,#346,.T.);
#109=ORIENTED_EDGE('',*,*,#347,.F.);
#110=ORIENTED_EDGE('',*,*,#348,.F.);
#111=ORIENTED_EDGE('',*,*,#349,.T.);
#112=ORIENTED_EDGE('',*,*,#350,.F.);
#113=ORIENTED_EDGE('',*,*,#351,.F.);
#114=ORIENTED_EDGE('',*,*,#352,.T.);
#115=ORIENTED_EDGE('',*,*,#353,.T.);
#116=ORIENTED_EDGE('',*,*,#354,.T.);
#117=ORIENTED_EDGE('',*,*,#323,.F.);
#118=ORIENTED_EDGE('',*,*,#342,.T.);
#119=ORIENTED_EDGE('',*,*,#355,.T.);
#120=ORIENTED_EDGE('',*,*,#340,.F.);
#121=ORIENTED_EDGE('',*,*,#356,.F.);
#122=ORIENTED_EDGE('',*,*,#357,.F.);
#123=ORIENTED_EDGE('',*,*,#348,.T.);
#124=ORIENTED_EDGE('',*,*,#358,.T.);
#125=ORIENTED_EDGE('',*,*,#334,.F.);
#126=ORIENTED_EDGE('',*,*,#351,.T.);
#127=ORIENTED_EDGE('',*,*,#359,.T.);
#128=ORIENTED_EDGE('',*,*,#331,.F.);
#129=ORIENTED_EDGE('',*,*,#360,.F.);
#130=ORIENTED_EDGE('',*,*,#361,.T.);
#131=ORIENTED_EDGE('',*,*,#362,.T.);
#132=ORIENTED_EDGE('',*,*,#363,.F.);
#133=ORIENTED_EDGE('',*,*,#364,.F.);
#134=ORIENTED_EDGE('',*,*,#365,.F.);
#135=ORIENTED_EDGE('',*,*,#361,.F.);
#136=ORIENTED_EDGE('',*,*,#366,.T.);
#137=ORIENTED_EDGE('',*,*,#367,.F.);
#138=ORIENTED_EDGE('',*,*,#368,.F.);
#139=ORIENTED_EDGE('',*,*,#369,.T.);
#140=ORIENTED_EDGE('',*,*,#370,.F.);
#141=ORIENTED_EDGE('',*,*,#371,.T.);
#142=ORIENTED_EDGE('',*,*,#353,.F.);
#143=ORIENTED_EDGE('',*,*,#372,.F.);
#144=ORIENTED_EDGE('',*,*,#329,.F.);
#145=ORIENTED_EDGE('',*,*,#373,.F.);
#146=ORIENTED_EDGE('',*,*,#374,.T.);
#147=ORIENTED_EDGE('',*,*,#375,.T.);
#148=ORIENTED_EDGE('',*,*,#376,.F.);
#149=ORIENTED_EDGE('',*,*,#377,.T.);
#150=ORIENTED_EDGE('',*,*,#378,.T.);
#151=ORIENTED_EDGE('',*,*,#379,.F.);
#152=ORIENTED_EDGE('',*,*,#380,.T.);
#153=ORIENTED_EDGE('',*,*,#363,.T.);
#154=ORIENTED_EDGE('',*,*,#368,.T.);
#155=ORIENTED_EDGE('',*,*,#381,.T.);
#156=ORIENTED_EDGE('',*,*,#378,.F.);
#157=ORIENTED_EDGE('',*,*,#382,.F.);
#158=ORIENTED_EDGE('',*,*,#345,.T.);
#159=ORIENTED_EDGE('',*,*,#383,.T.);
#160=ORIENTED_EDGE('',*,*,#337,.F.);
#161=ORIENTED_EDGE('',*,*,#384,.F.);
#162=ORIENTED_EDGE('',*,*,#385,.F.);
#163=ORIENTED_EDGE('',*,*,#373,.T.);
#164=ORIENTED_EDGE('',*,*,#328,.T.);
#165=ORIENTED_EDGE('',*,*,#302,.T.);
#166=ORIENTED_EDGE('',*,*,#386,.T.);
#167=ORIENTED_EDGE('',*,*,#387,.T.);
#168=ORIENTED_EDGE('',*,*,#311,.F.);
#169=ORIENTED_EDGE('',*,*,#324,.F.);
#170=ORIENTED_EDGE('',*,*,#354,.F.);
#171=ORIENTED_EDGE('',*,*,#371,.F.);
#172=ORIENTED_EDGE('',*,*,#388,.T.);
#173=ORIENTED_EDGE('',*,*,#389,.F.);
#174=ORIENTED_EDGE('',*,*,#390,.T.);
#175=ORIENTED_EDGE('',*,*,#391,.F.);
#176=ORIENTED_EDGE('',*,*,#392,.F.);
#177=ORIENTED_EDGE('',*,*,#389,.T.);
#178=ORIENTED_EDGE('',*,*,#393,.T.);
#179=ORIENTED_EDGE('',*,*,#394,.F.);
#180=ORIENTED_EDGE('',*,*,#395,.F.);
#181=ORIENTED_EDGE('',*,*,#391,.T.);
#182=ORIENTED_EDGE('',*,*,#396,.F.);
#183=ORIENTED_EDGE('',*,*,#397,.F.);
#184=ORIENTED_EDGE('',*,*,#398,.T.);
#185=ORIENTED_EDGE('',*,*,#394,.T.);
#186=ORIENTED_EDGE('',*,*,#399,.T.);
#187=ORIENTED_EDGE('',*,*,#400,.T.);
#188=ORIENTED_EDGE('',*,*,#375,.F.);
#189=ORIENTED_EDGE('',*,*,#401,.F.);
#190=ORIENTED_EDGE('',*,*,#397,.T.);
#191=ORIENTED_EDGE('',*,*,#374,.F.);
#192=ORIENTED_EDGE('',*,*,#385,.T.);
#193=ORIENTED_EDGE('',*,*,#392,.T.);
#194=ORIENTED_EDGE('',*,*,#395,.T.);
#195=ORIENTED_EDGE('',*,*,#398,.F.);
#196=ORIENTED_EDGE('',*,*,#401,.T.);
#197=ORIENTED_EDGE('',*,*,#370,.T.);
#198=ORIENTED_EDGE('',*,*,#402,.T.);
#199=ORIENTED_EDGE('',*,*,#399,.F.);
#200=ORIENTED_EDGE('',*,*,#396,.T.);
#201=ORIENTED_EDGE('',*,*,#393,.F.);
#202=ORIENTED_EDGE('',*,*,#390,.F.);
#203=ORIENTED_EDGE('',*,*,#388,.F.);
#204=ORIENTED_EDGE('',*,*,#314,.T.);
#205=ORIENTED_EDGE('',*,*,#403,.F.);
#206=ORIENTED_EDGE('',*,*,#404,.F.);
#207=ORIENTED_EDGE('',*,*,#296,.T.);
#208=ORIENTED_EDGE('',*,*,#313,.T.);
#209=ORIENTED_EDGE('',*,*,#405,.F.);
#210=ORIENTED_EDGE('',*,*,#406,.F.);
#211=ORIENTED_EDGE('',*,*,#403,.T.);
#212=ORIENTED_EDGE('',*,*,#312,.F.);
#213=ORIENTED_EDGE('',*,*,#387,.F.);
#214=ORIENTED_EDGE('',*,*,#407,.T.);
#215=ORIENTED_EDGE('',*,*,#405,.T.);
#216=ORIENTED_EDGE('',*,*,#301,.F.);
#217=ORIENTED_EDGE('',*,*,#297,.T.);
#218=ORIENTED_EDGE('',*,*,#404,.T.);
#219=ORIENTED_EDGE('',*,*,#406,.T.);
#220=ORIENTED_EDGE('',*,*,#407,.F.);
#221=ORIENTED_EDGE('',*,*,#386,.F.);
#222=ORIENTED_EDGE('',*,*,#384,.T.);
#223=ORIENTED_EDGE('',*,*,#336,.F.);
#224=ORIENTED_EDGE('',*,*,#408,.F.);
#225=ORIENTED_EDGE('',*,*,#346,.F.);
#226=ORIENTED_EDGE('',*,*,#347,.T.);
#227=ORIENTED_EDGE('',*,*,#408,.T.);
#228=ORIENTED_EDGE('',*,*,#335,.T.);
#229=ORIENTED_EDGE('',*,*,#358,.F.);
#230=ORIENTED_EDGE('',*,*,#409,.T.);
#231=ORIENTED_EDGE('',*,*,#376,.T.);
#232=ORIENTED_EDGE('',*,*,#400,.F.);
#233=ORIENTED_EDGE('',*,*,#402,.F.);
#234=ORIENTED_EDGE('',*,*,#382,.T.);
#235=ORIENTED_EDGE('',*,*,#377,.F.);
#236=ORIENTED_EDGE('',*,*,#409,.F.);
#237=ORIENTED_EDGE('',*,*,#369,.F.);
#238=ORIENTED_EDGE('',*,*,#364,.T.);
#239=ORIENTED_EDGE('',*,*,#380,.F.);
#240=ORIENTED_EDGE('',*,*,#410,.F.);
#241=ORIENTED_EDGE('',*,*,#366,.F.);
#242=ORIENTED_EDGE('',*,*,#367,.T.);
#243=ORIENTED_EDGE('',*,*,#410,.T.);
#244=ORIENTED_EDGE('',*,*,#379,.T.);
#245=ORIENTED_EDGE('',*,*,#381,.F.);
#246=ORIENTED_EDGE('',*,*,#360,.T.);
#247=ORIENTED_EDGE('',*,*,#330,.F.);
#248=ORIENTED_EDGE('',*,*,#411,.F.);
#249=ORIENTED_EDGE('',*,*,#352,.F.);
#250=ORIENTED_EDGE('',*,*,#365,.T.);
#251=ORIENTED_EDGE('',*,*,#411,.T.);
#252=ORIENTED_EDGE('',*,*,#372,.T.);
#253=ORIENTED_EDGE('',*,*,#362,.F.);
#254=ORIENTED_EDGE('',*,*,#357,.T.);
#255=ORIENTED_EDGE('',*,*,#333,.F.);
#256=ORIENTED_EDGE('',*,*,#412,.F.);
#257=ORIENTED_EDGE('',*,*,#349,.F.);
#258=ORIENTED_EDGE('',*,*,#350,.T.);
#259=ORIENTED_EDGE('',*,*,#412,.T.);
#260=ORIENTED_EDGE('',*,*,#332,.T.);
#261=ORIENTED_EDGE('',*,*,#359,.F.);
#262=ORIENTED_EDGE('',*,*,#356,.T.);
#263=ORIENTED_EDGE('',*,*,#339,.F.);
#264=ORIENTED_EDGE('',*,*,#413,.F.);
#265=ORIENTED_EDGE('',*,*,#343,.F.);
#266=ORIENTED_EDGE('',*,*,#344,.T.);
#267=ORIENTED_EDGE('',*,*,#413,.T.);
#268=ORIENTED_EDGE('',*,*,#338,.T.);
#269=ORIENTED_EDGE('',*,*,#383,.F.);
#270=ORIENTED_EDGE('',*,*,#326,.T.);
#271=ORIENTED_EDGE('',*,*,#304,.F.);
#272=ORIENTED_EDGE('',*,*,#414,.F.);
#273=ORIENTED_EDGE('',*,*,#322,.F.);
#274=ORIENTED_EDGE('',*,*,#341,.T.);
#275=ORIENTED_EDGE('',*,*,#414,.T.);
#276=ORIENTED_EDGE('',*,*,#327,.T.);
#277=ORIENTED_EDGE('',*,*,#355,.F.);
#278=ORIENTED_EDGE('',*,*,#317,.T.);
#279=ORIENTED_EDGE('',*,*,#307,.F.);
#280=ORIENTED_EDGE('',*,*,#415,.F.);
#281=ORIENTED_EDGE('',*,*,#319,.F.);
#282=ORIENTED_EDGE('',*,*,#320,.T.);
#283=ORIENTED_EDGE('',*,*,#415,.T.);
#284=ORIENTED_EDGE('',*,*,#306,.T.);
#285=ORIENTED_EDGE('',*,*,#325,.F.);
#286=ORIENTED_EDGE('',*,*,#416,.F.);
#287=ORIENTED_EDGE('',*,*,#309,.T.);
#288=ORIENTED_EDGE('',*,*,#294,.T.);
#289=ORIENTED_EDGE('',*,*,#300,.F.);
#290=ORIENTED_EDGE('',*,*,#318,.T.);
#291=ORIENTED_EDGE('',*,*,#416,.T.);
#292=ORIENTED_EDGE('',*,*,#299,.T.);
#293=ORIENTED_EDGE('',*,*,#316,.F.);
#294=EDGE_CURVE('',#417,#418,#497,.T.);
#295=EDGE_CURVE('',#417,#419,#498,.T.);
#296=EDGE_CURVE('',#420,#419,#499,.T.);
#297=EDGE_CURVE('',#421,#420,#500,.T.);
#298=EDGE_CURVE('',#418,#421,#34,.T.);
#299=EDGE_CURVE('',#422,#423,#12,.F.);
#300=EDGE_CURVE('',#422,#418,#13,.F.);
#301=EDGE_CURVE('',#421,#424,#501,.T.);
#302=EDGE_CURVE('',#425,#424,#35,.T.);
#303=EDGE_CURVE('',#425,#426,#502,.T.);
#304=EDGE_CURVE('',#426,#427,#14,.F.);
#305=EDGE_CURVE('',#427,#428,#36,.T.);
#306=EDGE_CURVE('',#429,#428,#15,.F.);
#307=EDGE_CURVE('',#429,#430,#16,.F.);
#308=EDGE_CURVE('',#430,#423,#37,.T.);
#309=EDGE_CURVE('',#431,#417,#503,.T.);
#310=EDGE_CURVE('',#432,#431,#504,.T.);
#311=EDGE_CURVE('',#432,#433,#505,.T.);
#312=EDGE_CURVE('',#433,#434,#506,.T.);
#313=EDGE_CURVE('',#435,#434,#507,.T.);
#314=EDGE_CURVE('',#419,#435,#508,.T.);
#315=EDGE_CURVE('',#436,#437,#38,.T.);
#316=EDGE_CURVE('',#437,#423,#509,.T.);
#317=EDGE_CURVE('',#436,#430,#510,.T.);
#318=EDGE_CURVE('',#437,#431,#17,.T.);
#319=EDGE_CURVE('',#436,#438,#18,.T.);
#320=EDGE_CURVE('',#439,#438,#19,.T.);
#321=EDGE_CURVE('',#440,#439,#39,.T.);
#322=EDGE_CURVE('',#440,#441,#20,.T.);
#323=EDGE_CURVE('',#441,#442,#511,.F.);
#324=EDGE_CURVE('',#442,#432,#40,.T.);
#325=EDGE_CURVE('',#439,#428,#512,.T.);
#326=EDGE_CURVE('',#440,#427,#513,.T.);
#327=EDGE_CURVE('',#426,#443,#514,.T.);
#328=EDGE_CURVE('',#444,#425,#515,.T.);
#329=EDGE_CURVE('',#444,#445,#516,.T.);
#330=EDGE_CURVE('',#445,#446,#517,.T.);
#331=EDGE_CURVE('',#446,#447,#518,.T.);
#332=EDGE_CURVE('',#448,#447,#519,.T.);
#333=EDGE_CURVE('',#448,#449,#520,.T.);
#334=EDGE_CURVE('',#449,#450,#521,.T.);
#335=EDGE_CURVE('',#451,#450,#522,.T.);
#336=EDGE_CURVE('',#451,#452,#523,.T.);
#337=EDGE_CURVE('',#452,#453,#524,.T.);
#338=EDGE_CURVE('',#454,#453,#525,.T.);
#339=EDGE_CURVE('',#454,#455,#526,.T.);
#340=EDGE_CURVE('',#455,#443,#527,.T.);
#341=EDGE_CURVE('',#456,#441,#528,.T.);
#342=EDGE_CURVE('',#457,#456,#529,.T.);
#343=EDGE_CURVE('',#457,#458,#530,.T.);
#344=EDGE_CURVE('',#459,#458,#531,.T.);
#345=EDGE_CURVE('',#460,#459,#532,.T.);
#346=EDGE_CURVE('',#460,#461,#533,.T.);
#347=EDGE_CURVE('',#462,#461,#534,.T.);
#348=EDGE_CURVE('',#463,#462,#535,.T.);
#349=EDGE_CURVE('',#463,#464,#536,.T.);
#350=EDGE_CURVE('',#465,#464,#537,.T.);
#351=EDGE_CURVE('',#466,#465,#538,.T.);
#352=EDGE_CURVE('',#466,#467,#539,.T.);
#353=EDGE_CURVE('',#467,#468,#540,.F.);
#354=EDGE_CURVE('',#468,#442,#541,.T.);
#355=EDGE_CURVE('',#456,#443,#542,.T.);
#356=EDGE_CURVE('',#457,#455,#543,.T.);
#357=EDGE_CURVE('',#463,#449,#544,.T.);
#358=EDGE_CURVE('',#462,#450,#545,.T.);
#359=EDGE_CURVE('',#465,#447,#546,.T.);
#360=EDGE_CURVE('',#466,#446,#547,.T.);
#361=EDGE_CURVE('',#469,#470,#41,.T.);
#362=EDGE_CURVE('',#470,#471,#548,.T.);
#363=EDGE_CURVE('',#472,#471,#42,.T.);
#364=EDGE_CURVE('',#469,#472,#549,.T.);
#365=EDGE_CURVE('',#470,#467,#21,.T.);
#366=EDGE_CURVE('',#469,#473,#22,.T.);
#367=EDGE_CURVE('',#474,#473,#23,.T.);
#368=EDGE_CURVE('',#475,#474,#43,.T.);
#369=EDGE_CURVE('',#475,#476,#24,.T.);
#370=EDGE_CURVE('',#477,#476,#550,.T.);
#371=EDGE_CURVE('',#477,#468,#44,.T.);
#372=EDGE_CURVE('',#445,#471,#25,.F.);
#373=EDGE_CURVE('',#478,#444,#45,.T.);
#374=EDGE_CURVE('',#478,#479,#551,.F.);
#375=EDGE_CURVE('',#479,#480,#46,.T.);
#376=EDGE_CURVE('',#481,#480,#26,.F.);
#377=EDGE_CURVE('',#481,#482,#27,.F.);
#378=EDGE_CURVE('',#482,#483,#47,.T.);
#379=EDGE_CURVE('',#484,#483,#28,.F.);
#380=EDGE_CURVE('',#484,#472,#29,.F.);
#381=EDGE_CURVE('',#474,#483,#552,.T.);
#382=EDGE_CURVE('',#475,#482,#553,.T.);
#383=EDGE_CURVE('',#459,#453,#554,.T.);
#384=EDGE_CURVE('',#460,#452,#555,.T.);
#385=EDGE_CURVE('',#478,#485,#556,.T.);
#386=EDGE_CURVE('',#424,#486,#557,.T.);
#387=EDGE_CURVE('',#486,#433,#558,.T.);
#388=EDGE_CURVE('',#477,#487,#559,.T.);
#389=EDGE_CURVE('',#485,#487,#560,.T.);
#390=EDGE_CURVE('',#487,#488,#561,.T.);
#391=EDGE_CURVE('',#489,#488,#562,.T.);
#392=EDGE_CURVE('',#485,#489,#563,.T.);
#393=EDGE_CURVE('',#488,#490,#564,.T.);
#394=EDGE_CURVE('',#491,#490,#565,.T.);
#395=EDGE_CURVE('',#489,#491,#566,.T.);
#396=EDGE_CURVE('',#492,#490,#567,.T.);
#397=EDGE_CURVE('',#493,#492,#568,.T.);
#398=EDGE_CURVE('',#493,#491,#569,.T.);
#399=EDGE_CURVE('',#492,#494,#570,.T.);
#400=EDGE_CURVE('',#494,#480,#571,.T.);
#401=EDGE_CURVE('',#493,#479,#572,.T.);
#402=EDGE_CURVE('',#476,#494,#573,.T.);
#403=EDGE_CURVE('',#495,#435,#574,.T.);
#404=EDGE_CURVE('',#420,#495,#575,.T.);
#405=EDGE_CURVE('',#496,#434,#576,.T.);
#406=EDGE_CURVE('',#495,#496,#577,.T.);
#407=EDGE_CURVE('',#486,#496,#578,.T.);
#408=EDGE_CURVE('',#461,#451,#579,.T.);
#409=EDGE_CURVE('',#476,#481,#580,.T.);
#410=EDGE_CURVE('',#473,#484,#581,.T.);
#411=EDGE_CURVE('',#467,#445,#582,.T.);
#412=EDGE_CURVE('',#464,#448,#583,.T.);
#413=EDGE_CURVE('',#458,#454,#584,.T.);
#414=EDGE_CURVE('',#441,#426,#585,.T.);
#415=EDGE_CURVE('',#438,#429,#586,.T.);
#416=EDGE_CURVE('',#431,#422,#587,.T.);
#417=VERTEX_POINT('',#1195);
#418=VERTEX_POINT('',#1196);
#419=VERTEX_POINT('',#1198);
#420=VERTEX_POINT('',#1200);
#421=VERTEX_POINT('',#1202);
#422=VERTEX_POINT('',#1206);
#423=VERTEX_POINT('',#1207);
#424=VERTEX_POINT('',#1210);
#425=VERTEX_POINT('',#1212);
#426=VERTEX_POINT('',#1214);
#427=VERTEX_POINT('',#1216);
#428=VERTEX_POINT('',#1218);
#429=VERTEX_POINT('',#1220);
#430=VERTEX_POINT('',#1222);
#431=VERTEX_POINT('',#1226);
#432=VERTEX_POINT('',#1228);
#433=VERTEX_POINT('',#1230);
#434=VERTEX_POINT('',#1232);
#435=VERTEX_POINT('',#1234);
#436=VERTEX_POINT('',#1238);
#437=VERTEX_POINT('',#1239);
#438=VERTEX_POINT('',#1245);
#439=VERTEX_POINT('',#1247);
#440=VERTEX_POINT('',#1249);
#441=VERTEX_POINT('',#1251);
#442=VERTEX_POINT('',#1253);
#443=VERTEX_POINT('',#1260);
#444=VERTEX_POINT('',#1262);
#445=VERTEX_POINT('',#1264);
#446=VERTEX_POINT('',#1266);
#447=VERTEX_POINT('',#1268);
#448=VERTEX_POINT('',#1270);
#449=VERTEX_POINT('',#1272);
#450=VERTEX_POINT('',#1274);
#451=VERTEX_POINT('',#1276);
#452=VERTEX_POINT('',#1278);
#453=VERTEX_POINT('',#1280);
#454=VERTEX_POINT('',#1282);
#455=VERTEX_POINT('',#1284);
#456=VERTEX_POINT('',#1288);
#457=VERTEX_POINT('',#1290);
#458=VERTEX_POINT('',#1292);
#459=VERTEX_POINT('',#1294);
#460=VERTEX_POINT('',#1296);
#461=VERTEX_POINT('',#1298);
#462=VERTEX_POINT('',#1300);
#463=VERTEX_POINT('',#1302);
#464=VERTEX_POINT('',#1304);
#465=VERTEX_POINT('',#1306);
#466=VERTEX_POINT('',#1308);
#467=VERTEX_POINT('',#1310);
#468=VERTEX_POINT('',#1312);
#469=VERTEX_POINT('',#1325);
#470=VERTEX_POINT('',#1326);
#471=VERTEX_POINT('',#1328);
#472=VERTEX_POINT('',#1330);
#473=VERTEX_POINT('',#1335);
#474=VERTEX_POINT('',#1337);
#475=VERTEX_POINT('',#1339);
#476=VERTEX_POINT('',#1341);
#477=VERTEX_POINT('',#1343);
#478=VERTEX_POINT('',#1348);
#479=VERTEX_POINT('',#1350);
#480=VERTEX_POINT('',#1352);
#481=VERTEX_POINT('',#1354);
#482=VERTEX_POINT('',#1356);
#483=VERTEX_POINT('',#1358);
#484=VERTEX_POINT('',#1360);
#485=VERTEX_POINT('',#1370);
#486=VERTEX_POINT('',#1372);
#487=VERTEX_POINT('',#1375);
#488=VERTEX_POINT('',#1379);
#489=VERTEX_POINT('',#1381);
#490=VERTEX_POINT('',#1385);
#491=VERTEX_POINT('',#1387);
#492=VERTEX_POINT('',#1391);
#493=VERTEX_POINT('',#1393);
#494=VERTEX_POINT('',#1397);
#495=VERTEX_POINT('',#1405);
#496=VERTEX_POINT('',#1409);
#497=LINE('',#1194,#588);
#498=LINE('',#1197,#589);
#499=LINE('',#1199,#590);
#500=LINE('',#1201,#591);
#501=LINE('',#1209,#592);
#502=LINE('',#1213,#593);
#503=LINE('',#1225,#594);
#504=LINE('',#1227,#595);
#505=LINE('',#1229,#596);
#506=LINE('',#1231,#597);
#507=LINE('',#1233,#598);
#508=LINE('',#1235,#599);
#509=LINE('',#1240,#600);
#510=LINE('',#1241,#601);
#511=LINE('',#1252,#602);
#512=LINE('',#1256,#603);
#513=LINE('',#1257,#604);
#514=LINE('',#1259,#605);
#515=LINE('',#1261,#606);
#516=LINE('',#1263,#607);
#517=LINE('',#1265,#608);
#518=LINE('',#1267,#609);
#519=LINE('',#1269,#610);
#520=LINE('',#1271,#611);
#521=LINE('',#1273,#612);
#522=LINE('',#1275,#613);
#523=LINE('',#1277,#614);
#524=LINE('',#1279,#615);
#525=LINE('',#1281,#616);
#526=LINE('',#1283,#617);
#527=LINE('',#1285,#618);
#528=LINE('',#1287,#619);
#529=LINE('',#1289,#620);
#530=LINE('',#1291,#621);
#531=LINE('',#1293,#622);
#532=LINE('',#1295,#623);
#533=LINE('',#1297,#624);
#534=LINE('',#1299,#625);
#535=LINE('',#1301,#626);
#536=LINE('',#1303,#627);
#537=LINE('',#1305,#628);
#538=LINE('',#1307,#629);
#539=LINE('',#1309,#630);
#540=LINE('',#1311,#631);
#541=LINE('',#1313,#632);
#542=LINE('',#1315,#633);
#543=LINE('',#1316,#634);
#544=LINE('',#1318,#635);
#545=LINE('',#1319,#636);
#546=LINE('',#1321,#637);
#547=LINE('',#1322,#638);
#548=LINE('',#1327,#639);
#549=LINE('',#1331,#640);
#550=LINE('',#1342,#641);
#551=LINE('',#1349,#642);
#552=LINE('',#1363,#643);
#553=LINE('',#1364,#644);
#554=LINE('',#1366,#645);
#555=LINE('',#1367,#646);
#556=LINE('',#1369,#647);
#557=LINE('',#1371,#648);
#558=LINE('',#1373,#649);
#559=LINE('',#1374,#650);
#560=LINE('',#1376,#651);
#561=LINE('',#1378,#652);
#562=LINE('',#1380,#653);
#563=LINE('',#1382,#654);
#564=LINE('',#1384,#655);
#565=LINE('',#1386,#656);
#566=LINE('',#1388,#657);
#567=LINE('',#1390,#658);
#568=LINE('',#1392,#659);
#569=LINE('',#1394,#660);
#570=LINE('',#1396,#661);
#571=LINE('',#1398,#662);
#572=LINE('',#1399,#663);
#573=LINE('',#1402,#664);
#574=LINE('',#1404,#665);
#575=LINE('',#1406,#666);
#576=LINE('',#1408,#667);
#577=LINE('',#1410,#668);
#578=LINE('',#1412,#669);
#579=LINE('',#1415,#670);
#580=LINE('',#1418,#671);
#581=LINE('',#1421,#672);
#582=LINE('',#1424,#673);
#583=LINE('',#1427,#674);
#584=LINE('',#1430,#675);
#585=LINE('',#1433,#676);
#586=LINE('',#1436,#677);
#587=LINE('',#1439,#678);
#588=VECTOR('',#949,1.);
#589=VECTOR('',#950,1.);
#590=VECTOR('',#951,1.);
#591=VECTOR('',#952,1.);
#592=VECTOR('',#961,1.);
#593=VECTOR('',#964,1.);
#594=VECTOR('',#977,1.);
#595=VECTOR('',#978,1.);
#596=VECTOR('',#979,1.);
#597=VECTOR('',#980,1.);
#598=VECTOR('',#981,1.);
#599=VECTOR('',#982,1.);
#600=VECTOR('',#987,1.);
#601=VECTOR('',#988,1.);
#602=VECTOR('',#1001,1.);
#603=VECTOR('',#1006,1.);
#604=VECTOR('',#1007,1.);
#605=VECTOR('',#1010,1.);
#606=VECTOR('',#1011,1.);
#607=VECTOR('',#1012,1.);
#608=VECTOR('',#1013,1.);
#609=VECTOR('',#1014,1.);
#610=VECTOR('',#1015,1.);
#611=VECTOR('',#1016,1.);
#612=VECTOR('',#1017,1.);
#613=VECTOR('',#1018,1.);
#614=VECTOR('',#1019,1.);
#615=VECTOR('',#1020,1.);
#616=VECTOR('',#1021,1.);
#617=VECTOR('',#1022,1.);
#618=VECTOR('',#1023,1.);
#619=VECTOR('',#1026,1.);
#620=VECTOR('',#1027,1.);
#621=VECTOR('',#1028,1.);
#622=VECTOR('',#1029,1.);
#623=VECTOR('',#1030,1.);
#624=VECTOR('',#1031,1.);
#625=VECTOR('',#1032,1.);
#626=VECTOR('',#1033,1.);
#627=VECTOR('',#1034,1.);
#628=VECTOR('',#1035,1.);
#629=VECTOR('',#1036,1.);
#630=VECTOR('',#1037,1.);
#631=VECTOR('',#1038,1.);
#632=VECTOR('',#1039,1.);
#633=VECTOR('',#1042,1.);
#634=VECTOR('',#1043,1.);
#635=VECTOR('',#1046,1.);
#636=VECTOR('',#1047,1.);
#637=VECTOR('',#1050,1.);
#638=VECTOR('',#1051,1.);
#639=VECTOR('',#1056,1.);
#640=VECTOR('',#1059,1.);
#641=VECTOR('',#1072,1.);
#642=VECTOR('',#1081,1.);
#643=VECTOR('',#1096,1.);
#644=VECTOR('',#1097,1.);
#645=VECTOR('',#1100,1.);
#646=VECTOR('',#1101,1.);
#647=VECTOR('',#1104,1.);
#648=VECTOR('',#1105,1.);
#649=VECTOR('',#1106,1.);
#650=VECTOR('',#1107,1.);
#651=VECTOR('',#1108,1.);
#652=VECTOR('',#1111,1.);
#653=VECTOR('',#1112,1.);
#654=VECTOR('',#1113,1.);
#655=VECTOR('',#1116,1.);
#656=VECTOR('',#1117,1.);
#657=VECTOR('',#1118,1.);
#658=VECTOR('',#1121,1.);
#659=VECTOR('',#1122,1.);
#660=VECTOR('',#1123,1.);
#661=VECTOR('',#1126,1.);
#662=VECTOR('',#1127,1.);
#663=VECTOR('',#1128,1.);
#664=VECTOR('',#1133,1.);
#665=VECTOR('',#1136,1.);
#666=VECTOR('',#1137,1.);
#667=VECTOR('',#1140,1.);
#668=VECTOR('',#1141,1.);
#669=VECTOR('',#1144,1.);
#670=VECTOR('',#1149,1.);
#671=VECTOR('',#1154,1.);
#672=VECTOR('',#1159,1.);
#673=VECTOR('',#1164,1.);
#674=VECTOR('',#1169,1.);
#675=VECTOR('',#1174,1.);
#676=VECTOR('',#1179,1.);
#677=VECTOR('',#1184,1.);
#678=VECTOR('',#1189,1.);
#679=EDGE_LOOP('',(#48,#49,#50,#51,#52));
#680=EDGE_LOOP('',(#53,#54,#55,#56,#57,#58,#59,#60,#61,#62,#63));
#681=EDGE_LOOP('',(#64,#65,#66,#67,#68,#69,#70));
#682=EDGE_LOOP('',(#71,#72,#73,#74));
#683=EDGE_LOOP('',(#75,#76,#77,#78,#79,#80,#81,#82,#83));
#684=EDGE_LOOP('',(#84,#85,#86,#87));
#685=EDGE_LOOP('',(#88,#89,#90,#91,#92,#93,#94,#95,#96,#97,#98,#99,#100,
#101,#102));
#686=EDGE_LOOP('',(#103,#104,#105,#106,#107,#108,#109,#110,#111,#112,#113,
#114,#115,#116,#117));
#687=EDGE_LOOP('',(#118,#119,#120,#121));
#688=EDGE_LOOP('',(#122,#123,#124,#125));
#689=EDGE_LOOP('',(#126,#127,#128,#129));
#690=EDGE_LOOP('',(#130,#131,#132,#133));
#691=EDGE_LOOP('',(#134,#135,#136,#137,#138,#139,#140,#141,#142));
#692=EDGE_LOOP('',(#143,#144,#145,#146,#147,#148,#149,#150,#151,#152,#153));
#693=EDGE_LOOP('',(#154,#155,#156,#157));
#694=EDGE_LOOP('',(#158,#159,#160,#161));
#695=EDGE_LOOP('',(#162,#163,#164,#165,#166,#167,#168,#169,#170,#171,#172,
#173));
#696=EDGE_LOOP('',(#174,#175,#176,#177));
#697=EDGE_LOOP('',(#178,#179,#180,#181));
#698=EDGE_LOOP('',(#182,#183,#184,#185));
#699=EDGE_LOOP('',(#186,#187,#188,#189,#190));
#700=EDGE_LOOP('',(#191,#192,#193,#194,#195,#196));
#701=EDGE_LOOP('',(#197,#198,#199,#200,#201,#202,#203));
#702=EDGE_LOOP('',(#204,#205,#206,#207));
#703=EDGE_LOOP('',(#208,#209,#210,#211));
#704=EDGE_LOOP('',(#212,#213,#214,#215));
#705=EDGE_LOOP('',(#216,#217,#218,#219,#220,#221));
#706=EDGE_LOOP('',(#222,#223,#224,#225));
#707=EDGE_LOOP('',(#226,#227,#228,#229));
#708=EDGE_LOOP('',(#230,#231,#232,#233));
#709=EDGE_LOOP('',(#234,#235,#236,#237));
#710=EDGE_LOOP('',(#238,#239,#240,#241));
#711=EDGE_LOOP('',(#242,#243,#244,#245));
#712=EDGE_LOOP('',(#246,#247,#248,#249));
#713=EDGE_LOOP('',(#250,#251,#252,#253));
#714=EDGE_LOOP('',(#254,#255,#256,#257));
#715=EDGE_LOOP('',(#258,#259,#260,#261));
#716=EDGE_LOOP('',(#262,#263,#264,#265));
#717=EDGE_LOOP('',(#266,#267,#268,#269));
#718=EDGE_LOOP('',(#270,#271,#272,#273));
#719=EDGE_LOOP('',(#274,#275,#276,#277));
#720=EDGE_LOOP('',(#278,#279,#280,#281));
#721=EDGE_LOOP('',(#282,#283,#284,#285));
#722=EDGE_LOOP('',(#286,#287,#288,#289));
#723=EDGE_LOOP('',(#290,#291,#292,#293));
#724=FACE_BOUND('',#679,.T.);
#725=FACE_BOUND('',#680,.T.);
#726=FACE_BOUND('',#681,.T.);
#727=FACE_BOUND('',#682,.T.);
#728=FACE_BOUND('',#683,.T.);
#729=FACE_BOUND('',#684,.T.);
#730=FACE_BOUND('',#685,.T.);
#731=FACE_BOUND('',#686,.T.);
#732=FACE_BOUND('',#687,.T.);
#733=FACE_BOUND('',#688,.T.);
#734=FACE_BOUND('',#689,.T.);
#735=FACE_BOUND('',#690,.T.);
#736=FACE_BOUND('',#691,.T.);
#737=FACE_BOUND('',#692,.T.);
#738=FACE_BOUND('',#693,.T.);
#739=FACE_BOUND('',#694,.T.);
#740=FACE_BOUND('',#695,.T.);
#741=FACE_BOUND('',#696,.T.);
#742=FACE_BOUND('',#697,.T.);
#743=FACE_BOUND('',#698,.T.);
#744=FACE_BOUND('',#699,.T.);
#745=FACE_BOUND('',#700,.T.);
#746=FACE_BOUND('',#701,.T.);
#747=FACE_BOUND('',#702,.T.);
#748=FACE_BOUND('',#703,.T.);
#749=FACE_BOUND('',#704,.T.);
#750=FACE_BOUND('',#705,.T.);
#751=FACE_BOUND('',#706,.T.);
#752=FACE_BOUND('',#707,.T.);
#753=FACE_BOUND('',#708,.T.);
#754=FACE_BOUND('',#709,.T.);
#755=FACE_BOUND('',#710,.T.);
#756=FACE_BOUND('',#711,.T.);
#757=FACE_BOUND('',#712,.T.);
#758=FACE_BOUND('',#713,.T.);
#759=FACE_BOUND('',#714,.T.);
#760=FACE_BOUND('',#715,.T.);
#761=FACE_BOUND('',#716,.T.);
#762=FACE_BOUND('',#717,.T.);
#763=FACE_BOUND('',#718,.T.);
#764=FACE_BOUND('',#719,.T.);
#765=FACE_BOUND('',#720,.T.);
#766=FACE_BOUND('',#721,.T.);
#767=FACE_BOUND('',#722,.T.);
#768=FACE_BOUND('',#723,.T.);
#769=PLANE('',#868);
#770=PLANE('',#879);
#771=PLANE('',#880);
#772=PLANE('',#889);
#773=PLANE('',#890);
#774=PLANE('',#891);
#775=PLANE('',#892);
#776=PLANE('',#893);
#777=PLANE('',#894);
#778=PLANE('',#895);
#779=PLANE('',#914);
#780=PLANE('',#915);
#781=PLANE('',#916);
#782=PLANE('',#917);
#783=PLANE('',#918);
#784=PLANE('',#919);
#785=PLANE('',#920);
#786=PLANE('',#921);
#787=PLANE('',#922);
#788=PLANE('',#923);
#789=PLANE('',#924);
#790=PLANE('',#925);
#791=PLANE('',#926);
#792=PLANE('',#927);
#793=PLANE('',#928);
#794=PLANE('',#929);
#795=PLANE('',#930);
#796=PLANE('',#931);
#797=PLANE('',#932);
#798=PLANE('',#933);
#799=PLANE('',#934);
#800=PLANE('',#935);
#801=PLANE('',#936);
#802=PLANE('',#937);
#803=PLANE('',#938);
#804=PLANE('',#939);
#805=PLANE('',#940);
#806=PLANE('',#941);
#807=PLANE('',#942);
#808=PLANE('',#943);
#809=PLANE('',#944);
#810=ADVANCED_FACE('',(#724),#769,.F.);
#811=ADVANCED_FACE('',(#725),#30,.T.);
#812=ADVANCED_FACE('',(#726),#770,.F.);
#813=ADVANCED_FACE('',(#727),#771,.F.);
#814=ADVANCED_FACE('',(#728),#31,.F.);
#815=ADVANCED_FACE('',(#729),#772,.F.);
#816=ADVANCED_FACE('',(#730),#773,.T.);
#817=ADVANCED_FACE('',(#731),#774,.T.);
#818=ADVANCED_FACE('',(#732),#775,.F.);
#819=ADVANCED_FACE('',(#733),#776,.F.);
#820=ADVANCED_FACE('',(#734),#777,.F.);
#821=ADVANCED_FACE('',(#735),#778,.F.);
#822=ADVANCED_FACE('',(#736),#32,.F.);
#823=ADVANCED_FACE('',(#737),#33,.T.);
#824=ADVANCED_FACE('',(#738),#779,.F.);
#825=ADVANCED_FACE('',(#739),#780,.F.);
#826=ADVANCED_FACE('',(#740),#781,.F.);
#827=ADVANCED_FACE('',(#741),#782,.F.);
#828=ADVANCED_FACE('',(#742),#783,.F.);
#829=ADVANCED_FACE('',(#743),#784,.T.);
#830=ADVANCED_FACE('',(#744),#785,.F.);
#831=ADVANCED_FACE('',(#745),#786,.T.);
#832=ADVANCED_FACE('',(#746),#787,.F.);
#833=ADVANCED_FACE('',(#747),#788,.F.);
#834=ADVANCED_FACE('',(#748),#789,.F.);
#835=ADVANCED_FACE('',(#749),#790,.T.);
#836=ADVANCED_FACE('',(#750),#791,.T.);
#837=ADVANCED_FACE('',(#751),#792,.T.);
#838=ADVANCED_FACE('',(#752),#793,.F.);
#839=ADVANCED_FACE('',(#753),#794,.F.);
#840=ADVANCED_FACE('',(#754),#795,.T.);
#841=ADVANCED_FACE('',(#755),#796,.T.);
#842=ADVANCED_FACE('',(#756),#797,.F.);
#843=ADVANCED_FACE('',(#757),#798,.T.);
#844=ADVANCED_FACE('',(#758),#799,.F.);
#845=ADVANCED_FACE('',(#759),#800,.T.);
#846=ADVANCED_FACE('',(#760),#801,.F.);
#847=ADVANCED_FACE('',(#761),#802,.T.);
#848=ADVANCED_FACE('',(#762),#803,.F.);
#849=ADVANCED_FACE('',(#763),#804,.T.);
#850=ADVANCED_FACE('',(#764),#805,.F.);
#851=ADVANCED_FACE('',(#765),#806,.T.);
#852=ADVANCED_FACE('',(#766),#807,.F.);
#853=ADVANCED_FACE('',(#767),#808,.T.);
#854=ADVANCED_FACE('',(#768),#809,.F.);
#855=CLOSED_SHELL('',(#810,#811,#812,#813,#814,#815,#816,#817,#818,#819,
#820,#821,#822,#823,#824,#825,#826,#827,#828,#829,#830,#831,#832,#833,#834,
#835,#836,#837,#838,#839,#840,#841,#842,#843,#844,#845,#846,#847,#848,#849,
#850,#851,#852,#853,#854));
#856=STYLED_ITEM('',(#857),#864);
#857=PRESENTATION_STYLE_ASSIGNMENT((#858));
#858=SURFACE_STYLE_USAGE(.BOTH.,#859);
#859=SURFACE_SIDE_STYLE('',(#860));
#860=SURFACE_STYLE_FILL_AREA(#861);
#861=FILL_AREA_STYLE('',(#862));
#862=FILL_AREA_STYLE_COLOUR('',#863);
#863=COLOUR_RGB('',0.615686274509804,0.811764705882353,0.929411764705882);
#864=MANIFOLD_SOLID_BREP('Part 1',#855);
#865=SHAPE_DEFINITION_REPRESENTATION(#1447,#866);
#866=SHAPE_REPRESENTATION('Part 1',(#867),#1442);
#867=AXIS2_PLACEMENT_3D('',#1192,#945,#946);
#868=AXIS2_PLACEMENT_3D('',#1193,#947,#948);
#869=AXIS2_PLACEMENT_3D('',#1203,#953,#954);
#870=AXIS2_PLACEMENT_3D('',#1204,#955,#956);
#871=AXIS2_PLACEMENT_3D('',#1205,#957,#958);
#872=AXIS2_PLACEMENT_3D('',#1208,#959,#960);
#873=AXIS2_PLACEMENT_3D('',#1211,#962,#963);
#874=AXIS2_PLACEMENT_3D('',#1215,#965,#966);
#875=AXIS2_PLACEMENT_3D('',#1217,#967,#968);
#876=AXIS2_PLACEMENT_3D('',#1219,#969,#970);
#877=AXIS2_PLACEMENT_3D('',#1221,#971,#972);
#878=AXIS2_PLACEMENT_3D('',#1223,#973,#974);
#879=AXIS2_PLACEMENT_3D('',#1224,#975,#976);
#880=AXIS2_PLACEMENT_3D('',#1236,#983,#984);
#881=AXIS2_PLACEMENT_3D('',#1237,#985,#986);
#882=AXIS2_PLACEMENT_3D('',#1242,#989,#990);
#883=AXIS2_PLACEMENT_3D('',#1243,#991,#992);
#884=AXIS2_PLACEMENT_3D('',#1244,#993,#994);
#885=AXIS2_PLACEMENT_3D('',#1246,#995,#996);
#886=AXIS2_PLACEMENT_3D('',#1248,#997,#998);
#887=AXIS2_PLACEMENT_3D('',#1250,#999,#1000);
#888=AXIS2_PLACEMENT_3D('',#1254,#1002,#1003);
#889=AXIS2_PLACEMENT_3D('',#1255,#1004,#1005);
#890=AXIS2_PLACEMENT_3D('',#1258,#1008,#1009);
#891=AXIS2_PLACEMENT_3D('',#1286,#1024,#1025);
#892=AXIS2_PLACEMENT_3D('',#1314,#1040,#1041);
#893=AXIS2_PLACEMENT_3D('',#1317,#1044,#1045);
#894=AXIS2_PLACEMENT_3D('',#1320,#1048,#1049);
#895=AXIS2_PLACEMENT_3D('',#1323,#1052,#1053);
#896=AXIS2_PLACEMENT_3D('',#1324,#1054,#1055);
#897=AXIS2_PLACEMENT_3D('',#1329,#1057,#1058);
#898=AXIS2_PLACEMENT_3D('',#1332,#1060,#1061);
#899=AXIS2_PLACEMENT_3D('',#1333,#1062,#1063);
#900=AXIS2_PLACEMENT_3D('',#1334,#1064,#1065);
#901=AXIS2_PLACEMENT_3D('',#1336,#1066,#1067);
#902=AXIS2_PLACEMENT_3D('',#1338,#1068,#1069);
#903=AXIS2_PLACEMENT_3D('',#1340,#1070,#1071);
#904=AXIS2_PLACEMENT_3D('',#1344,#1073,#1074);
#905=AXIS2_PLACEMENT_3D('',#1345,#1075,#1076);
#906=AXIS2_PLACEMENT_3D('',#1346,#1077,#1078);
#907=AXIS2_PLACEMENT_3D('',#1347,#1079,#1080);
#908=AXIS2_PLACEMENT_3D('',#1351,#1082,#1083);
#909=AXIS2_PLACEMENT_3D('',#1353,#1084,#1085);
#910=AXIS2_PLACEMENT_3D('',#1355,#1086,#1087);
#911=AXIS2_PLACEMENT_3D('',#1357,#1088,#1089);
#912=AXIS2_PLACEMENT_3D('',#1359,#1090,#1091);
#913=AXIS2_PLACEMENT_3D('',#1361,#1092,#1093);
#914=AXIS2_PLACEMENT_3D('',#1362,#1094,#1095);
#915=AXIS2_PLACEMENT_3D('',#1365,#1098,#1099);
#916=AXIS2_PLACEMENT_3D('',#1368,#1102,#1103);
#917=AXIS2_PLACEMENT_3D('',#1377,#1109,#1110);
#918=AXIS2_PLACEMENT_3D('',#1383,#1114,#1115);
#919=AXIS2_PLACEMENT_3D('',#1389,#1119,#1120);
#920=AXIS2_PLACEMENT_3D('',#1395,#1124,#1125);
#921=AXIS2_PLACEMENT_3D('',#1400,#1129,#1130);
#922=AXIS2_PLACEMENT_3D('',#1401,#1131,#1132);
#923=AXIS2_PLACEMENT_3D('',#1403,#1134,#1135);
#924=AXIS2_PLACEMENT_3D('',#1407,#1138,#1139);
#925=AXIS2_PLACEMENT_3D('',#1411,#1142,#1143);
#926=AXIS2_PLACEMENT_3D('',#1413,#1145,#1146);
#927=AXIS2_PLACEMENT_3D('',#1414,#1147,#1148);
#928=AXIS2_PLACEMENT_3D('',#1416,#1150,#1151);
#929=AXIS2_PLACEMENT_3D('',#1417,#1152,#1153);
#930=AXIS2_PLACEMENT_3D('',#1419,#1155,#1156);
#931=AXIS2_PLACEMENT_3D('',#1420,#1157,#1158);
#932=AXIS2_PLACEMENT_3D('',#1422,#1160,#1161);
#933=AXIS2_PLACEMENT_3D('',#1423,#1162,#1163);
#934=AXIS2_PLACEMENT_3D('',#1425,#1165,#1166);
#935=AXIS2_PLACEMENT_3D('',#1426,#1167,#1168);
#936=AXIS2_PLACEMENT_3D('',#1428,#1170,#1171);
#937=AXIS2_PLACEMENT_3D('',#1429,#1172,#1173);
#938=AXIS2_PLACEMENT_3D('',#1431,#1175,#1176);
#939=AXIS2_PLACEMENT_3D('',#1432,#1177,#1178);
#940=AXIS2_PLACEMENT_3D('',#1434,#1180,#1181);
#941=AXIS2_PLACEMENT_3D('',#1435,#1182,#1183);
#942=AXIS2_PLACEMENT_3D('',#1437,#1185,#1186);
#943=AXIS2_PLACEMENT_3D('',#1438,#1187,#1188);
#944=AXIS2_PLACEMENT_3D('',#1440,#1190,#1191);
#945=DIRECTION('',(0.,0.,1.));
#946=DIRECTION('',(1.,0.,0.));
#947=DIRECTION('',(-3.46944695195361E-16,1.,0.));
#948=DIRECTION('',(-1.,-3.46944695195361E-16,0.));
#949=DIRECTION('',(0.,-4.62592926927147E-16,1.));
#950=DIRECTION('',(1.,3.46944695195362E-16,0.));
#951=DIRECTION('',(0.,0.,-1.));
#952=DIRECTION('',(1.,3.46944695195362E-16,0.));
#953=DIRECTION('',(0.,1.,0.));
#954=DIRECTION('',(-1.38777878078145E-16,0.,1.));
#955=DIRECTION('',(0.,1.,0.));
#956=DIRECTION('',(0.,0.,1.));
#957=DIRECTION('',(-0.857492925712544,0.514495755427526,2.38002097394813E-16));
#958=DIRECTION('',(0.514495755427526,0.857492925712544,-1.42801258436888E-16));
#959=DIRECTION('',(-0.857492925712545,-0.514495755427526,-2.38002097394813E-16));
#960=DIRECTION('',(-0.514495755427526,0.857492925712545,-1.42801258436887E-16));
#961=DIRECTION('',(0.,1.,0.));
#962=DIRECTION('',(0.,1.,0.));
#963=DIRECTION('',(-1.38777878078145E-16,0.,1.));
#964=DIRECTION('',(-5.19214336526578E-32,-1.,-4.62592926927147E-16));
#965=DIRECTION('',(-0.857492925712545,-0.514495755427526,-2.38002097394813E-16));
#966=DIRECTION('',(-0.514495755427526,0.857492925712545,-1.42801258436887E-16));
#967=DIRECTION('',(0.,1.,0.));
#968=DIRECTION('',(-1.38777878078145E-16,0.,1.));
#969=DIRECTION('',(-0.857492925712544,0.514495755427526,2.38002097394813E-16));
#970=DIRECTION('',(0.514495755427526,0.857492925712544,-1.42801258436888E-16));
#971=DIRECTION('',(-0.857492925712545,-0.514495755427526,-2.38002097394813E-16));
#972=DIRECTION('',(-0.514495755427526,0.857492925712545,-1.42801258436887E-16));
#973=DIRECTION('',(0.,1.,0.));
#974=DIRECTION('',(-1.38777878078145E-16,0.,1.));
#975=DIRECTION('',(0.,0.,1.));
#976=DIRECTION('',(1.,0.,0.));
#977=DIRECTION('',(0.514495755427526,-0.857492925712545,0.));
#978=DIRECTION('',(4.62592926927146E-16,-1.,0.));
#979=DIRECTION('',(1.,0.,0.));
#980=DIRECTION('',(0.,-1.,0.));
#981=DIRECTION('',(1.,0.,0.));
#982=DIRECTION('',(0.,-1.,0.));
#983=DIRECTION('',(-3.46944695195361E-16,1.,0.));
#984=DIRECTION('',(-1.,-3.46944695195361E-16,0.));
#985=DIRECTION('',(0.,1.,0.));
#986=DIRECTION('',(-1.73472347597681E-16,0.,1.));
#987=DIRECTION('',(0.,-4.62592926927147E-16,1.));
#988=DIRECTION('',(0.,-4.62592926927147E-16,1.));
#989=DIRECTION('',(0.,1.,0.));
#990=DIRECTION('',(0.,0.,1.));
#991=DIRECTION('',(-0.857492925712544,0.514495755427526,2.38002097394813E-16));
#992=DIRECTION('',(0.514495755427526,0.857492925712544,-1.42801258436888E-16));
#993=DIRECTION('',(-0.857492925712545,-0.514495755427526,-2.38002097394813E-16));
#994=DIRECTION('',(-0.514495755427526,0.857492925712545,-1.42801258436887E-16));
#995=DIRECTION('',(-0.857492925712544,0.514495755427526,2.38002097394813E-16));
#996=DIRECTION('',(0.514495755427526,0.857492925712544,-1.42801258436888E-16));
#997=DIRECTION('',(0.,1.,0.));
#998=DIRECTION('',(-1.73472347597681E-16,0.,1.));
#999=DIRECTION('',(-0.857492925712545,-0.514495755427526,-2.38002097394813E-16));
#1000=DIRECTION('',(-0.514495755427526,0.857492925712545,-1.42801258436887E-16));
#1001=DIRECTION('',(-5.19214336526578E-32,-1.,-4.62592926927147E-16));
#1002=DIRECTION('',(0.,1.,0.));
#1003=DIRECTION('',(-1.7347234759768E-16,0.,1.));
#1004=DIRECTION('',(-3.46944695195361E-16,1.,0.));
#1005=DIRECTION('',(-1.,-3.46944695195361E-16,0.));
#1006=DIRECTION('',(0.,-4.62592926927147E-16,1.));
#1007=DIRECTION('',(0.,-4.62592926927147E-16,1.));
#1008=DIRECTION('',(0.,-4.62592926927147E-16,1.));
#1009=DIRECTION('',(0.,-1.,-4.62592926927147E-16));
#1010=DIRECTION('',(-0.514495755427526,-0.857492925712544,-3.96670162324688E-16));
#1011=DIRECTION('',(1.,0.,0.));
#1012=DIRECTION('',(2.83256473634768E-32,-1.,-4.62592926927147E-16));
#1013=DIRECTION('',(0.514495755427526,-0.857492925712545,-3.96670162324688E-16));
#1014=DIRECTION('',(1.,0.,0.));
#1015=DIRECTION('',(-0.514495755427526,-0.857492925712544,-3.96670162324688E-16));
#1016=DIRECTION('',(0.514495755427526,-0.857492925712545,-3.96670162324688E-16));
#1017=DIRECTION('',(1.,0.,0.));
#1018=DIRECTION('',(-0.514495755427526,-0.857492925712544,-3.96670162324688E-16));
#1019=DIRECTION('',(0.514495755427526,-0.857492925712545,-3.96670162324688E-16));
#1020=DIRECTION('',(1.,0.,0.));
#1021=DIRECTION('',(-0.514495755427526,-0.857492925712544,-3.96670162324688E-16));
#1022=DIRECTION('',(0.514495755427526,-0.857492925712545,-3.96670162324688E-16));
#1023=DIRECTION('',(1.,0.,0.));
#1024=DIRECTION('',(0.,4.62592926927147E-16,-1.));
#1025=DIRECTION('',(0.,1.,4.62592926927147E-16));
#1026=DIRECTION('',(0.514495755427526,0.857492925712544,3.96670162324689E-16));
#1027=DIRECTION('',(1.,0.,0.));
#1028=DIRECTION('',(-0.514495755427526,0.857492925712545,3.96670162324689E-16));
#1029=DIRECTION('',(0.514495755427526,0.857492925712544,3.96670162324689E-16));
#1030=DIRECTION('',(1.,0.,0.));
#1031=DIRECTION('',(-0.514495755427526,0.857492925712545,3.96670162324689E-16));
#1032=DIRECTION('',(0.514495755427526,0.857492925712544,3.96670162324689E-16));
#1033=DIRECTION('',(1.,0.,0.));
#1034=DIRECTION('',(-0.514495755427526,0.857492925712545,3.96670162324689E-16));
#1035=DIRECTION('',(0.514495755427526,0.857492925712544,3.96670162324689E-16));
#1036=DIRECTION('',(1.,0.,0.));
#1037=DIRECTION('',(-0.514495755427526,0.857492925712545,3.96670162324689E-16));
#1038=DIRECTION('',(2.83256473634768E-32,-1.,-4.62592926927147E-16));
#1039=DIRECTION('',(1.,0.,0.));
#1040=DIRECTION('',(-3.46944695195361E-16,1.,0.));
#1041=DIRECTION('',(-1.,-3.46944695195361E-16,0.));
#1042=DIRECTION('',(0.,-4.62592926927147E-16,1.));
#1043=DIRECTION('',(0.,-4.62592926927147E-16,1.));
#1044=DIRECTION('',(-3.46944695195361E-16,1.,0.));
#1045=DIRECTION('',(-1.,-3.46944695195361E-16,0.));
#1046=DIRECTION('',(0.,-4.62592926927147E-16,1.));
#1047=DIRECTION('',(0.,-4.62592926927147E-16,1.));
#1048=DIRECTION('',(-3.46944695195361E-16,1.,0.));
#1049=DIRECTION('',(-1.,-3.46944695195361E-16,0.));
#1050=DIRECTION('',(0.,-4.62592926927147E-16,1.));
#1051=DIRECTION('',(0.,-4.62592926927147E-16,1.));
#1052=DIRECTION('',(-3.46944695195361E-16,1.,0.));
#1053=DIRECTION('',(-1.,-3.46944695195361E-16,0.));
#1054=DIRECTION('',(0.,1.,0.));
#1055=DIRECTION('',(-1.,0.,0.));
#1056=DIRECTION('',(0.,-4.62592926927147E-16,1.));
#1057=DIRECTION('',(0.,1.,0.));
#1058=DIRECTION('',(-1.,0.,0.));
#1059=DIRECTION('',(0.,-4.62592926927147E-16,1.));
#1060=DIRECTION('',(0.,1.,0.));
#1061=DIRECTION('',(0.,0.,1.));
#1062=DIRECTION('',(-0.857492925712544,0.514495755427526,2.38002097394813E-16));
#1063=DIRECTION('',(0.514495755427526,0.857492925712544,-1.42801258436888E-16));
#1064=DIRECTION('',(-0.857492925712545,-0.514495755427526,-2.38002097394813E-16));
#1065=DIRECTION('',(-0.514495755427526,0.857492925712545,-1.42801258436887E-16));
#1066=DIRECTION('',(-0.857492925712544,0.514495755427526,2.38002097394813E-16));
#1067=DIRECTION('',(0.514495755427526,0.857492925712544,-1.42801258436888E-16));
#1068=DIRECTION('',(0.,1.,0.));
#1069=DIRECTION('',(-1.,0.,0.));
#1070=DIRECTION('',(-0.857492925712545,-0.514495755427526,-2.38002097394813E-16));
#1071=DIRECTION('',(-0.514495755427526,0.857492925712545,-1.42801258436887E-16));
#1072=DIRECTION('',(4.6259292692715E-16,-1.,0.));
#1073=DIRECTION('',(0.,1.,0.));
#1074=DIRECTION('',(-1.,0.,0.));
#1075=DIRECTION('',(0.,1.,0.));
#1076=DIRECTION('',(0.,0.,1.));
#1077=DIRECTION('',(-0.857492925712544,0.514495755427526,2.38002097394813E-16));
#1078=DIRECTION('',(0.514495755427526,0.857492925712544,-1.42801258436888E-16));
#1079=DIRECTION('',(0.,1.,0.));
#1080=DIRECTION('',(-1.,0.,0.));
#1081=DIRECTION('',(0.,1.,0.));
#1082=DIRECTION('',(0.,1.,0.));
#1083=DIRECTION('',(-1.,0.,0.));
#1084=DIRECTION('',(-0.857492925712544,0.514495755427526,2.38002097394813E-16));
#1085=DIRECTION('',(0.514495755427526,0.857492925712544,-1.42801258436888E-16));
#1086=DIRECTION('',(-0.857492925712545,-0.514495755427526,-2.38002097394813E-16));
#1087=DIRECTION('',(-0.514495755427526,0.857492925712545,-1.42801258436887E-16));
#1088=DIRECTION('',(0.,1.,0.));
#1089=DIRECTION('',(-1.,0.,0.));
#1090=DIRECTION('',(-0.857492925712544,0.514495755427526,2.38002097394813E-16));
#1091=DIRECTION('',(0.514495755427526,0.857492925712544,-1.42801258436888E-16));
#1092=DIRECTION('',(-0.857492925712545,-0.514495755427526,-2.38002097394813E-16));
#1093=DIRECTION('',(-0.514495755427526,0.857492925712545,-1.42801258436887E-16));
#1094=DIRECTION('',(-3.46944695195361E-16,1.,0.));
#1095=DIRECTION('',(-1.,-3.46944695195361E-16,0.));
#1096=DIRECTION('',(0.,-4.62592926927147E-16,1.));
#1097=DIRECTION('',(0.,-4.62592926927147E-16,1.));
#1098=DIRECTION('',(-3.46944695195361E-16,1.,0.));
#1099=DIRECTION('',(-1.,-3.46944695195361E-16,0.));
#1100=DIRECTION('',(0.,-4.62592926927147E-16,1.));
#1101=DIRECTION('',(0.,-4.62592926927147E-16,1.));
#1102=DIRECTION('',(0.,-1.,0.));
#1103=DIRECTION('',(0.,0.,-1.));
#1104=DIRECTION('',(-1.,0.,0.));
#1105=DIRECTION('',(1.,0.,0.));
#1106=DIRECTION('',(0.,0.,-1.));
#1107=DIRECTION('',(-1.,0.,0.));
#1108=DIRECTION('',(0.,0.,-1.));
#1109=DIRECTION('',(1.,0.,0.));
#1110=DIRECTION('',(0.,0.,-1.));
#1111=DIRECTION('',(0.,-1.,0.));
#1112=DIRECTION('',(0.,0.,-1.));
#1113=DIRECTION('',(0.,-1.,0.));
#1114=DIRECTION('',(0.,1.,0.));
#1115=DIRECTION('',(0.,0.,1.));
#1116=DIRECTION('',(1.,0.,0.));
#1117=DIRECTION('',(0.,0.,-1.));
#1118=DIRECTION('',(1.,0.,0.));
#1119=DIRECTION('',(1.,6.93889390390719E-16,0.));
#1120=DIRECTION('',(-6.93889390390719E-16,1.,0.));
#1121=DIRECTION('',(6.93889390390719E-16,-1.,0.));
#1122=DIRECTION('',(0.,0.,-1.));
#1123=DIRECTION('',(6.93889390390719E-16,-1.,0.));
#1124=DIRECTION('',(-3.46944695195361E-16,1.,0.));
#1125=DIRECTION('',(-1.,-3.46944695195361E-16,0.));
#1126=DIRECTION('',(1.,3.46944695195361E-16,0.));
#1127=DIRECTION('',(0.,-4.62592926927147E-16,1.));
#1128=DIRECTION('',(1.,3.46944695195361E-16,0.));
#1129=DIRECTION('',(0.,0.,1.));
#1130=DIRECTION('',(1.,0.,0.));
#1131=DIRECTION('',(0.,0.,1.));
#1132=DIRECTION('',(1.,0.,0.));
#1133=DIRECTION('',(-0.514495755427526,-0.857492925712544,0.));
#1134=DIRECTION('',(1.,0.,0.));
#1135=DIRECTION('',(0.,0.,-1.));
#1136=DIRECTION('',(0.,0.,-1.));
#1137=DIRECTION('',(0.,-1.,0.));
#1138=DIRECTION('',(0.,1.,0.));
#1139=DIRECTION('',(0.,0.,1.));
#1140=DIRECTION('',(0.,0.,-1.));
#1141=DIRECTION('',(1.,0.,0.));
#1142=DIRECTION('',(1.,0.,0.));
#1143=DIRECTION('',(0.,0.,-1.));
#1144=DIRECTION('',(0.,-1.,0.));
#1145=DIRECTION('',(0.,0.,1.));
#1146=DIRECTION('',(1.,0.,0.));
#1147=DIRECTION('',(-0.857492925712545,-0.514495755427526,-2.38002097394813E-16));
#1148=DIRECTION('',(0.514495755427526,-0.857492925712545,0.));
#1149=DIRECTION('',(0.,-4.62592926927147E-16,1.));
#1150=DIRECTION('',(-0.857492925712544,0.514495755427526,2.38002097394813E-16));
#1151=DIRECTION('',(-0.514495755427526,-0.857492925712544,0.));
#1152=DIRECTION('',(-0.857492925712544,0.514495755427526,2.38002097394813E-16));
#1153=DIRECTION('',(-0.514495755427526,-0.857492925712544,0.));
#1154=DIRECTION('',(0.,-4.62592926927147E-16,1.));
#1155=DIRECTION('',(-0.857492925712545,-0.514495755427526,-2.38002097394813E-16));
#1156=DIRECTION('',(0.514495755427526,-0.857492925712545,0.));
#1157=DIRECTION('',(-0.857492925712545,-0.514495755427526,-2.38002097394813E-16));
#1158=DIRECTION('',(0.514495755427526,-0.857492925712545,0.));
#1159=DIRECTION('',(0.,-4.62592926927147E-16,1.));
#1160=DIRECTION('',(-0.857492925712544,0.514495755427526,2.38002097394813E-16));
#1161=DIRECTION('',(-0.514495755427526,-0.857492925712544,0.));
#1162=DIRECTION('',(-0.857492925712545,-0.514495755427526,-2.38002097394813E-16));
#1163=DIRECTION('',(0.514495755427526,-0.857492925712545,0.));
#1164=DIRECTION('',(0.,-4.62592926927147E-16,1.));
#1165=DIRECTION('',(-0.857492925712544,0.514495755427526,2.38002097394813E-16));
#1166=DIRECTION('',(-0.514495755427526,-0.857492925712544,0.));
#1167=DIRECTION('',(-0.857492925712545,-0.514495755427526,-2.38002097394813E-16));
#1168=DIRECTION('',(0.514495755427526,-0.857492925712545,0.));
#1169=DIRECTION('',(0.,-4.62592926927147E-16,1.));
#1170=DIRECTION('',(-0.857492925712544,0.514495755427526,2.38002097394813E-16));
#1171=DIRECTION('',(-0.514495755427526,-0.857492925712544,0.));
#1172=DIRECTION('',(-0.857492925712545,-0.514495755427526,-2.38002097394813E-16));
#1173=DIRECTION('',(0.514495755427526,-0.857492925712545,0.));
#1174=DIRECTION('',(0.,-4.62592926927147E-16,1.));
#1175=DIRECTION('',(-0.857492925712544,0.514495755427526,2.38002097394813E-16));
#1176=DIRECTION('',(-0.514495755427526,-0.857492925712544,0.));
#1177=DIRECTION('',(-0.857492925712545,-0.514495755427526,-2.38002097394813E-16));
#1178=DIRECTION('',(0.514495755427526,-0.857492925712545,0.));
#1179=DIRECTION('',(0.,-4.62592926927147E-16,1.));
#1180=DIRECTION('',(-0.857492925712544,0.514495755427526,2.38002097394813E-16));
#1181=DIRECTION('',(-0.514495755427526,-0.857492925712544,0.));
#1182=DIRECTION('',(-0.857492925712545,-0.514495755427526,-2.38002097394813E-16));
#1183=DIRECTION('',(0.514495755427526,-0.857492925712545,0.));
#1184=DIRECTION('',(0.,-4.62592926927147E-16,1.));
#1185=DIRECTION('',(-0.857492925712544,0.514495755427526,2.38002097394813E-16));
#1186=DIRECTION('',(-0.514495755427526,-0.857492925712544,0.));
#1187=DIRECTION('',(-0.857492925712545,-0.514495755427526,-2.38002097394813E-16));
#1188=DIRECTION('',(0.514495755427526,-0.857492925712545,0.));
#1189=DIRECTION('',(0.,-4.62592926927147E-16,1.));
#1190=DIRECTION('',(-0.857492925712544,0.514495755427526,2.38002097394813E-16));
#1191=DIRECTION('',(-0.514495755427526,-0.857492925712544,0.));
#1192=CARTESIAN_POINT('',(0.,0.,0.));
#1193=CARTESIAN_POINT('',(-0.02125,-0.0075,0.0025));
#1194=CARTESIAN_POINT('',(0.0215,-0.0075,-0.0125));
#1195=CARTESIAN_POINT('',(0.0215,-0.0075,0.));
#1196=CARTESIAN_POINT('',(0.0215,-0.0075,0.00489897948556634));
#1197=CARTESIAN_POINT('',(0.02125,-0.0075,0.));
#1198=CARTESIAN_POINT('',(0.0225,-0.0075,0.));
#1199=CARTESIAN_POINT('',(0.0225,-0.0075,0.0025));
#1200=CARTESIAN_POINT('',(0.0225,-0.0075,0.0025));
#1201=CARTESIAN_POINT('',(0.02125,-0.0075,0.0025));
#1202=CARTESIAN_POINT('',(0.0222474487139159,-0.0075,0.0025));
#1203=CARTESIAN_POINT('',(0.01,-0.0075,0.));
#1204=CARTESIAN_POINT('',(0.01,0.,0.));
#1205=CARTESIAN_POINT('',(0.01,-0.0216666666666667,0.));
#1206=CARTESIAN_POINT('',(0.02,-0.005,0.0075));
#1207=CARTESIAN_POINT('',(0.0185,-0.0075,0.00916515138991166));
#1208=CARTESIAN_POINT('',(0.01,0.0116666666666667,0.));
#1209=CARTESIAN_POINT('',(0.0222474487139159,0.,0.0025));
#1210=CARTESIAN_POINT('',(0.0222474487139159,0.0075,0.0025));
#1211=CARTESIAN_POINT('',(0.01,0.0075,0.));
#1212=CARTESIAN_POINT('',(0.01,0.0075,0.0125));
#1213=CARTESIAN_POINT('',(0.01,0.00375,0.0125));
#1214=CARTESIAN_POINT('',(0.01,-0.005,0.0125));
#1215=CARTESIAN_POINT('',(0.01,-0.005,0.));
#1216=CARTESIAN_POINT('',(0.0115,-0.0075,0.0124096736459908));
#1217=CARTESIAN_POINT('',(0.01,-0.0075,0.));
#1218=CARTESIAN_POINT('',(0.0135,-0.0075,0.012));
#1219=CARTESIAN_POINT('',(0.01,-0.0133333333333333,0.));
#1220=CARTESIAN_POINT('',(0.015,-0.005,0.0114564392373896));
#1221=CARTESIAN_POINT('',(0.01,0.00333333333333339,0.));
#1222=CARTESIAN_POINT('',(0.0165,-0.0075,0.0106770782520313));
#1223=CARTESIAN_POINT('',(0.01,-0.0075,0.));
#1224=CARTESIAN_POINT('',(0.,-2.42861286636753E-17,0.));
#1225=CARTESIAN_POINT('',(0.0125,0.0075,0.));
#1226=CARTESIAN_POINT('',(0.02,-0.005,0.));
#1227=CARTESIAN_POINT('',(0.02,0.00375,0.));
#1228=CARTESIAN_POINT('',(0.02,0.0075,0.));
#1229=CARTESIAN_POINT('',(0.035,0.0075,0.));
#1230=CARTESIAN_POINT('',(0.0475,0.0075,0.));
#1231=CARTESIAN_POINT('',(0.0475,-0.0025,0.));
#1232=CARTESIAN_POINT('',(0.0475,-0.0125,0.));
#1233=CARTESIAN_POINT('',(0.035,-0.0125,0.));
#1234=CARTESIAN_POINT('',(0.0225,-0.0125,0.));
#1235=CARTESIAN_POINT('',(0.0225,-0.01,0.));
#1236=CARTESIAN_POINT('',(-0.02125,-0.0075,0.0025));
#1237=CARTESIAN_POINT('',(0.01,-0.0075,0.));
#1238=CARTESIAN_POINT('',(0.0165,-0.0075,0.00759934207678533));
#1239=CARTESIAN_POINT('',(0.0185,-0.0075,0.00526782687642635));
#1240=CARTESIAN_POINT('',(0.0185,-0.0075,-0.0125));
#1241=CARTESIAN_POINT('',(0.0165,-0.0075,-0.0125));
#1242=CARTESIAN_POINT('',(0.01,0.,0.));
#1243=CARTESIAN_POINT('',(0.01,-0.0216666666666667,0.));
#1244=CARTESIAN_POINT('',(0.01,0.00333333333333339,0.));
#1245=CARTESIAN_POINT('',(0.015,-0.005,0.00866025403784438));
#1246=CARTESIAN_POINT('',(0.01,-0.0133333333333333,0.));
#1247=CARTESIAN_POINT('',(0.0135,-0.0075,0.00936749699759759));
#1248=CARTESIAN_POINT('',(0.01,-0.0075,0.));
#1249=CARTESIAN_POINT('',(0.0115,-0.0075,0.00988685996664259));
#1250=CARTESIAN_POINT('',(0.01,-0.005,0.));
#1251=CARTESIAN_POINT('',(0.01,-0.005,0.01));
#1252=CARTESIAN_POINT('',(0.01,0.00375,0.01));
#1253=CARTESIAN_POINT('',(0.01,0.0075,0.01));
#1254=CARTESIAN_POINT('',(0.01,0.0075,0.));
#1255=CARTESIAN_POINT('',(-0.02125,-0.0075,0.0025));
#1256=CARTESIAN_POINT('',(0.0135,-0.0075,-0.0125));
#1257=CARTESIAN_POINT('',(0.0115,-0.0075,-0.0125));
#1258=CARTESIAN_POINT('',(-0.01,0.00375,0.0125));
#1259=CARTESIAN_POINT('',(0.00925,-0.00625,0.0125));
#1260=CARTESIAN_POINT('',(0.0085,-0.0075,0.0125));
#1261=CARTESIAN_POINT('',(-0.01,0.0075,0.0125));
#1262=CARTESIAN_POINT('',(-0.01,0.0075,0.0125));
#1263=CARTESIAN_POINT('',(-0.01,0.00375,0.0125));
#1264=CARTESIAN_POINT('',(-0.01,-0.005,0.0125));
#1265=CARTESIAN_POINT('',(-0.00925,-0.00625,0.0125));
#1266=CARTESIAN_POINT('',(-0.0085,-0.0075,0.0125));
#1267=CARTESIAN_POINT('',(-0.01,-0.0075,0.0125));
#1268=CARTESIAN_POINT('',(-0.0065,-0.0075,0.0125));
#1269=CARTESIAN_POINT('',(-0.00575,-0.00625,0.0125));
#1270=CARTESIAN_POINT('',(-0.005,-0.005,0.0125));
#1271=CARTESIAN_POINT('',(-0.00425,-0.00625,0.0125));
#1272=CARTESIAN_POINT('',(-0.0035,-0.0075,0.0125));
#1273=CARTESIAN_POINT('',(-0.01,-0.0075,0.0125));
#1274=CARTESIAN_POINT('',(-0.0015,-0.0075,0.0125));
#1275=CARTESIAN_POINT('',(-0.00075,-0.00625,0.0125));
#1276=CARTESIAN_POINT('',(-3.25260651745652E-19,-0.005,0.0125));
#1277=CARTESIAN_POINT('',(0.00075,-0.00625,0.0125));
#1278=CARTESIAN_POINT('',(0.0015,-0.0075,0.0125));
#1279=CARTESIAN_POINT('',(-0.01,-0.0075,0.0125));
#1280=CARTESIAN_POINT('',(0.0035,-0.0075,0.0125));
#1281=CARTESIAN_POINT('',(0.00425,-0.00625,0.0125));
#1282=CARTESIAN_POINT('',(0.005,-0.005,0.0125));
#1283=CARTESIAN_POINT('',(0.00575,-0.00625,0.0125));
#1284=CARTESIAN_POINT('',(0.0065,-0.0075,0.0125));
#1285=CARTESIAN_POINT('',(-0.01,-0.0075,0.0125));
#1286=CARTESIAN_POINT('',(-0.01,0.00375,0.01));
#1287=CARTESIAN_POINT('',(0.00856617647058823,-0.00738970588235293,0.01));
#1288=CARTESIAN_POINT('',(0.0085,-0.0075,0.01));
#1289=CARTESIAN_POINT('',(-0.01,-0.0075,0.01));
#1290=CARTESIAN_POINT('',(0.0065,-0.0075,0.01));
#1291=CARTESIAN_POINT('',(-0.00283088235294116,0.00805147058823531,0.01));
#1292=CARTESIAN_POINT('',(0.005,-0.005,0.01));
#1293=CARTESIAN_POINT('',(0.00488970588235294,-0.00518382352941175,0.01));
#1294=CARTESIAN_POINT('',(0.0035,-0.0075,0.01));
#1295=CARTESIAN_POINT('',(-0.01,-0.0075,0.01));
#1296=CARTESIAN_POINT('',(0.0015,-0.0075,0.01));
#1297=CARTESIAN_POINT('',(-0.00650735294117646,0.00584558823529414,0.01));
#1298=CARTESIAN_POINT('',(-3.25260651745652E-19,-0.005,0.01));
#1299=CARTESIAN_POINT('',(0.00121323529411764,-0.00297794117647058,0.01));
#1300=CARTESIAN_POINT('',(-0.0015,-0.0075,0.01));
#1301=CARTESIAN_POINT('',(-0.01,-0.0075,0.01));
#1302=CARTESIAN_POINT('',(-0.0035,-0.0075,0.01));
#1303=CARTESIAN_POINT('',(-0.0101838235294117,0.00363970588235296,0.01));
#1304=CARTESIAN_POINT('',(-0.005,-0.005,0.01));
#1305=CARTESIAN_POINT('',(-0.00246323529411765,-0.000772058823529399,0.01));
#1306=CARTESIAN_POINT('',(-0.0065,-0.0075,0.01));
#1307=CARTESIAN_POINT('',(-0.01,-0.0075,0.01));
#1308=CARTESIAN_POINT('',(-0.0085,-0.0075,0.01));
#1309=CARTESIAN_POINT('',(-0.0138602941176471,0.00143382352941179,0.01));
#1310=CARTESIAN_POINT('',(-0.01,-0.005,0.01));
#1311=CARTESIAN_POINT('',(-0.01,0.00375,0.01));
#1312=CARTESIAN_POINT('',(-0.01,0.0075,0.01));
#1313=CARTESIAN_POINT('',(-0.01,0.0075,0.01));
#1314=CARTESIAN_POINT('',(-0.02125,-0.0075,0.0025));
#1315=CARTESIAN_POINT('',(0.0085,-0.0075,-0.0125));
#1316=CARTESIAN_POINT('',(0.0065,-0.0075,-0.0125));
#1317=CARTESIAN_POINT('',(-0.02125,-0.0075,0.0025));
#1318=CARTESIAN_POINT('',(-0.0035,-0.0075,-0.0125));
#1319=CARTESIAN_POINT('',(-0.0015,-0.0075,-0.0125));
#1320=CARTESIAN_POINT('',(-0.02125,-0.0075,0.0025));
#1321=CARTESIAN_POINT('',(-0.0065,-0.0075,-0.0125));
#1322=CARTESIAN_POINT('',(-0.0085,-0.0075,-0.0125));
#1323=CARTESIAN_POINT('',(-0.02125,-0.0075,0.0025));
#1324=CARTESIAN_POINT('',(-0.01,-0.0075,0.));
#1325=CARTESIAN_POINT('',(-0.0135,-0.0075,0.0093674969975976));
#1326=CARTESIAN_POINT('',(-0.0115,-0.0075,0.0098868599666426));
#1327=CARTESIAN_POINT('',(-0.0115,-0.0075,-0.0125));
#1328=CARTESIAN_POINT('',(-0.0115,-0.0075,0.0124096736459908));
#1329=CARTESIAN_POINT('',(-0.01,-0.0075,0.));
#1330=CARTESIAN_POINT('',(-0.0135,-0.0075,0.012));
#1331=CARTESIAN_POINT('',(-0.0135,-0.0075,-0.0125));
#1332=CARTESIAN_POINT('',(-0.01,0.,0.));
#1333=CARTESIAN_POINT('',(-0.01,-0.005,0.));
#1334=CARTESIAN_POINT('',(-0.01,-0.0133333333333333,0.));
#1335=CARTESIAN_POINT('',(-0.015,-0.005,0.00866025403784439));
#1336=CARTESIAN_POINT('',(-0.01,0.00333333333333335,0.));
#1337=CARTESIAN_POINT('',(-0.0165,-0.0075,0.00759934207678534));
#1338=CARTESIAN_POINT('',(-0.01,-0.0075,0.));
#1339=CARTESIAN_POINT('',(-0.0185,-0.0075,0.00526782687642637));
#1340=CARTESIAN_POINT('',(-0.01,-0.0216666666666667,0.));
#1341=CARTESIAN_POINT('',(-0.02,-0.005,0.));
#1342=CARTESIAN_POINT('',(-0.02,-0.00375,0.));
#1343=CARTESIAN_POINT('',(-0.02,0.0075,0.));
#1344=CARTESIAN_POINT('',(-0.01,0.0075,0.));
#1345=CARTESIAN_POINT('',(-0.01,0.,0.));
#1346=CARTESIAN_POINT('',(-0.01,-0.005,0.));
#1347=CARTESIAN_POINT('',(-0.01,0.0075,0.));
#1348=CARTESIAN_POINT('',(-0.0222474487139159,0.0075,0.0025));
#1349=CARTESIAN_POINT('',(-0.0222474487139159,0.,0.0025));
#1350=CARTESIAN_POINT('',(-0.0222474487139159,-0.0075,0.0025));
#1351=CARTESIAN_POINT('',(-0.01,-0.0075,0.));
#1352=CARTESIAN_POINT('',(-0.0215,-0.0075,0.00489897948556635));
#1353=CARTESIAN_POINT('',(-0.01,0.0116666666666667,0.));
#1354=CARTESIAN_POINT('',(-0.02,-0.005,0.0075));
#1355=CARTESIAN_POINT('',(-0.01,-0.0216666666666667,0.));
#1356=CARTESIAN_POINT('',(-0.0185,-0.0075,0.00916515138991167));
#1357=CARTESIAN_POINT('',(-0.01,-0.0075,0.));
#1358=CARTESIAN_POINT('',(-0.0165,-0.0075,0.0106770782520313));
#1359=CARTESIAN_POINT('',(-0.01,0.00333333333333335,0.));
#1360=CARTESIAN_POINT('',(-0.015,-0.005,0.0114564392373896));
#1361=CARTESIAN_POINT('',(-0.01,-0.0133333333333333,0.));
#1362=CARTESIAN_POINT('',(-0.02125,-0.0075,0.0025));
#1363=CARTESIAN_POINT('',(-0.0165,-0.0075,-0.0125));
#1364=CARTESIAN_POINT('',(-0.0185,-0.0075,-0.0125));
#1365=CARTESIAN_POINT('',(-0.02125,-0.0075,0.0025));
#1366=CARTESIAN_POINT('',(0.0035,-0.0075,-0.0125));
#1367=CARTESIAN_POINT('',(0.0015,-0.0075,-0.0125));
#1368=CARTESIAN_POINT('',(-0.035,0.0075,0.0025));
#1369=CARTESIAN_POINT('',(-0.035,0.0075,0.0025));
#1370=CARTESIAN_POINT('',(-0.0475,0.0075,0.0025));
#1371=CARTESIAN_POINT('',(0.035,0.0075,0.0025));
#1372=CARTESIAN_POINT('',(0.0475,0.0075,0.0025));
#1373=CARTESIAN_POINT('',(0.0475,0.0075,0.0025));
#1374=CARTESIAN_POINT('',(-0.035,0.0075,0.));
#1375=CARTESIAN_POINT('',(-0.0475,0.0075,0.));
#1376=CARTESIAN_POINT('',(-0.0475,0.0075,0.0025));
#1377=CARTESIAN_POINT('',(-0.0475,-0.00250000000000004,0.0025));
#1378=CARTESIAN_POINT('',(-0.0475,-0.00250000000000004,0.));
#1379=CARTESIAN_POINT('',(-0.0475,-0.0125,0.));
#1380=CARTESIAN_POINT('',(-0.0475,-0.0125,0.0025));
#1381=CARTESIAN_POINT('',(-0.0475,-0.0125,0.0025));
#1382=CARTESIAN_POINT('',(-0.0475,-0.00250000000000004,0.0025));
#1383=CARTESIAN_POINT('',(-0.035,-0.0125,0.0025));
#1384=CARTESIAN_POINT('',(-0.035,-0.0125,0.));
#1385=CARTESIAN_POINT('',(-0.0225,-0.0125,0.));
#1386=CARTESIAN_POINT('',(-0.0225,-0.0125,0.0025));
#1387=CARTESIAN_POINT('',(-0.0225,-0.0125,0.0025));
#1388=CARTESIAN_POINT('',(-0.035,-0.0125,0.0025));
#1389=CARTESIAN_POINT('',(-0.0225,-0.01,0.0025));
#1390=CARTESIAN_POINT('',(-0.0225,-0.01,0.));
#1391=CARTESIAN_POINT('',(-0.0225,-0.0075,0.));
#1392=CARTESIAN_POINT('',(-0.0225,-0.0075,0.0025));
#1393=CARTESIAN_POINT('',(-0.0225,-0.0075,0.0025));
#1394=CARTESIAN_POINT('',(-0.0225,-0.01,0.0025));
#1395=CARTESIAN_POINT('',(-0.02125,-0.0075,0.0025));
#1396=CARTESIAN_POINT('',(-0.02125,-0.0075,0.));
#1397=CARTESIAN_POINT('',(-0.0215,-0.0075,0.));
#1398=CARTESIAN_POINT('',(-0.0215,-0.0075,-0.0125));
#1399=CARTESIAN_POINT('',(-0.02125,-0.0075,0.0025));
#1400=CARTESIAN_POINT('',(0.,-2.42861286636753E-17,0.0025));
#1401=CARTESIAN_POINT('',(0.,-2.42861286636753E-17,0.));
#1402=CARTESIAN_POINT('',(-0.0125,0.0075,0.));
#1403=CARTESIAN_POINT('',(0.0225,-0.01,0.0025));
#1404=CARTESIAN_POINT('',(0.0225,-0.0125,0.0025));
#1405=CARTESIAN_POINT('',(0.0225,-0.0125,0.0025));
#1406=CARTESIAN_POINT('',(0.0225,-0.01,0.0025));
#1407=CARTESIAN_POINT('',(0.035,-0.0125,0.0025));
#1408=CARTESIAN_POINT('',(0.0475,-0.0125,0.0025));
#1409=CARTESIAN_POINT('',(0.0475,-0.0125,0.0025));
#1410=CARTESIAN_POINT('',(0.035,-0.0125,0.0025));
#1411=CARTESIAN_POINT('',(0.0475,-0.0025,0.0025));
#1412=CARTESIAN_POINT('',(0.0475,-0.0025,0.0025));
#1413=CARTESIAN_POINT('',(0.,-2.42861286636753E-17,0.0025));
#1414=CARTESIAN_POINT('',(0.00075,-0.00625,-0.0125));
#1415=CARTESIAN_POINT('',(-3.25260651745652E-19,-0.005,-0.0125));
#1416=CARTESIAN_POINT('',(-0.00075,-0.00625,-0.0125));
#1417=CARTESIAN_POINT('',(-0.02075,-0.00625,-0.0125));
#1418=CARTESIAN_POINT('',(-0.02,-0.005,-0.0125));
#1419=CARTESIAN_POINT('',(-0.01925,-0.00625,-0.0125));
#1420=CARTESIAN_POINT('',(-0.01425,-0.00625,-0.0125));
#1421=CARTESIAN_POINT('',(-0.015,-0.005,-0.0125));
#1422=CARTESIAN_POINT('',(-0.01575,-0.00625,-0.0125));
#1423=CARTESIAN_POINT('',(-0.00925,-0.00625,-0.0125));
#1424=CARTESIAN_POINT('',(-0.01,-0.005,-0.0125));
#1425=CARTESIAN_POINT('',(-0.01075,-0.00625,-0.0125));
#1426=CARTESIAN_POINT('',(-0.00425,-0.00625,-0.0125));
#1427=CARTESIAN_POINT('',(-0.005,-0.005,-0.0125));
#1428=CARTESIAN_POINT('',(-0.00575,-0.00625,-0.0125));
#1429=CARTESIAN_POINT('',(0.00575,-0.00625,-0.0125));
#1430=CARTESIAN_POINT('',(0.005,-0.005,-0.0125));
#1431=CARTESIAN_POINT('',(0.00425,-0.00625,-0.0125));
#1432=CARTESIAN_POINT('',(0.01075,-0.00625,-0.0125));
#1433=CARTESIAN_POINT('',(0.01,-0.005,-0.0125));
#1434=CARTESIAN_POINT('',(0.00925,-0.00625,-0.0125));
#1435=CARTESIAN_POINT('',(0.01575,-0.00625,-0.0125));
#1436=CARTESIAN_POINT('',(0.015,-0.005,-0.0125));
#1437=CARTESIAN_POINT('',(0.01425,-0.00625,-0.0125));
#1438=CARTESIAN_POINT('',(0.02075,-0.00625,-0.0125));
#1439=CARTESIAN_POINT('',(0.02,-0.005,-0.0125));
#1440=CARTESIAN_POINT('',(0.01925,-0.00625,-0.0125));
#1441=MECHANICAL_DESIGN_GEOMETRIC_PRESENTATION_REPRESENTATION('',(#856),
#1442);
#1442=(
GEOMETRIC_REPRESENTATION_CONTEXT(3)
GLOBAL_UNCERTAINTY_ASSIGNED_CONTEXT((#1443))
GLOBAL_UNIT_ASSIGNED_CONTEXT((#1446,#1445,#1444))
REPRESENTATION_CONTEXT('Part 1','TOP_LEVEL_ASSEMBLY_PART')
);
#1443=UNCERTAINTY_MEASURE_WITH_UNIT(LENGTH_MEASURE(1.E-8),#1446,
'DISTANCE_ACCURACY_VALUE','Maximum Tolerance applied to model');
#1444=(
NAMED_UNIT(*)
SI_UNIT($,.STERADIAN.)
SOLID_ANGLE_UNIT()
);
#1445=(
NAMED_UNIT(*)
PLANE_ANGLE_UNIT()
SI_UNIT($,.RADIAN.)
);
#1446=(
LENGTH_UNIT()
NAMED_UNIT(*)
SI_UNIT($,.METRE.)
);
#1447=PRODUCT_DEFINITION_SHAPE('','',#1448);
#1448=PRODUCT_DEFINITION('','',#1450,#1449);
#1449=PRODUCT_DEFINITION_CONTEXT('',#1456,'design');
#1450=PRODUCT_DEFINITION_FORMATION_WITH_SPECIFIED_SOURCE('','',#1452,
 .NOT_KNOWN.);
#1451=PRODUCT_RELATED_PRODUCT_CATEGORY('','',(#1452));
#1452=PRODUCT('Part 1','Part 1','Part 1',(#1454));
#1453=PRODUCT_CATEGORY('','');
#1454=PRODUCT_CONTEXT('',#1456,'mechanical');
#1455=APPLICATION_PROTOCOL_DEFINITION('international standard',
'ap242_managed_model_based_3d_engineering',2020,#1456);
#1456=APPLICATION_CONTEXT('managed model based 3d engineering');
ENDSEC;
END-ISO-10303-21;
